<svg width="20" height="17" viewBox="0 0 20 17" fill="none" xmlns="http://www.w3.org/2000/svg">
<path d="M17.9302 7.37973C17.8548 7.36737 17.7784 7.3616 17.702 7.36247H4.68725L4.97485 7.23018C5.25228 7.0988 5.50467 6.92005 5.72069 6.70196L9.36647 3.05329C9.59927 2.8311 9.74616 2.53386 9.78124 2.21396C9.81631 1.89407 9.73733 1.57205 9.55821 1.3047C9.447 1.1529 9.30462 1.02664 9.14062 0.934368C8.97663 0.842097 8.7948 0.785953 8.60733 0.769702C8.41986 0.753452 8.23108 0.77747 8.05365 0.840145C7.87622 0.90282 7.71424 1.0027 7.57857 1.1331L0.974354 7.73252C0.7269 7.98006 0.587891 8.31575 0.587891 8.66577C0.587891 9.01579 0.7269 9.35148 0.974354 9.59903L7.57378 16.1984C7.7068 16.331 7.86658 16.4336 8.04243 16.4995C8.21829 16.5654 8.40617 16.593 8.59354 16.5805C8.78092 16.5679 8.96346 16.5156 9.12898 16.4269C9.29451 16.3382 9.43921 16.2152 9.55341 16.0662C9.73253 15.7988 9.81152 15.4768 9.77644 15.1569C9.74137 14.837 9.59448 14.5397 9.36168 14.3176L5.71877 10.6612C5.52506 10.4683 5.30256 10.3066 5.05921 10.1819L4.66328 10.0036H17.6292C17.9556 10.0158 18.2756 9.91061 18.5312 9.70712C18.7867 9.50363 18.9609 9.2153 19.0221 8.89441C19.0499 8.72326 19.0437 8.5483 19.0039 8.37954C18.964 8.21078 18.8913 8.05153 18.7899 7.91087C18.6885 7.77021 18.5604 7.6509 18.4129 7.55977C18.2654 7.46864 18.1014 7.40746 17.9302 7.37973Z" fill="#2741D7"/>
</svg>
