<svg width="92" height="71" viewBox="0 0 92 71" fill="none" xmlns="http://www.w3.org/2000/svg">
<path d="M40.8085 45.7568L0.646649 22.4326L0.760851 56.4762L22.612 69.169C23.9864 69.9671 25.6678 70.2604 27.2899 69.9849C28.9119 69.7095 30.3429 68.8877 31.271 67.6986L42.5109 53.2378C42.9669 52.6502 43.2847 51.9899 43.4459 51.2951C43.6072 50.6002 43.6087 49.8845 43.4505 49.1891C43.2922 48.4938 42.9773 47.8325 42.5239 47.2434C42.0705 46.6543 41.4875 46.1491 40.8085 45.7568Z" fill="#44099F"/>
<path d="M40.5852 24.5231L0.457055 1.08321L0.678616 35.8018L22.1727 48.3566C23.5635 49.1692 25.2685 49.4681 26.9127 49.1876C28.557 48.9071 30.0057 48.0702 30.9403 46.8609L42.3064 32.1396C43.2381 30.9307 43.5801 29.4497 43.2574 28.0218C42.9347 26.5939 41.9737 25.3356 40.5852 24.5231Z" fill="#52F1EC"/>
<path opacity="0.239" d="M0.556081 22.8556L0.713576 37.566C6.29638 40.8578 17.9683 47.7335 21.7123 49.9417C26.6508 52.852 30.713 49.3443 31.6379 48.361C32.5628 47.3777 35.5247 42.727 35.5247 42.727L0.556081 22.8556Z" fill="#050505"/>
<path d="M34.5628 42.18C34.5628 42.18 31.833 46.0947 31.0075 46.9612C30.1819 47.8278 26.5615 50.9281 22.1611 48.3579L0.683436 35.8815L0.542604 22.8473L34.5628 42.18Z" fill="#5064CC"/>
<path d="M53.648 19.432C54.736 19.432 55.56 19.592 56.12 19.912C56.688 20.232 56.972 20.784 56.972 21.568C56.972 22.072 56.836 22.492 56.564 22.828C56.3 23.156 55.92 23.364 55.424 23.452V23.512C55.76 23.568 56.064 23.672 56.336 23.824C56.616 23.976 56.836 24.192 56.996 24.472C57.156 24.744 57.236 25.104 57.236 25.552C57.236 26.328 56.964 26.932 56.42 27.364C55.876 27.788 55.14 28 54.212 28H51.14V19.432H53.648ZM53.864 23.008C54.536 23.008 54.996 22.9 55.244 22.684C55.5 22.468 55.628 22.148 55.628 21.724C55.628 21.3 55.476 20.996 55.172 20.812C54.868 20.62 54.384 20.524 53.72 20.524H52.436V23.008H53.864ZM52.436 24.064V26.92H54.008C54.696 26.92 55.176 26.784 55.448 26.512C55.728 26.24 55.868 25.88 55.868 25.432C55.868 25.024 55.724 24.696 55.436 24.448C55.156 24.192 54.652 24.064 53.924 24.064H52.436ZM62.063 21.412C62.175 21.412 62.295 21.42 62.423 21.436C62.559 21.444 62.675 21.456 62.771 21.472L62.639 22.66C62.431 22.604 62.215 22.576 61.991 22.576C61.671 22.576 61.367 22.656 61.079 22.816C60.799 22.976 60.571 23.208 60.395 23.512C60.227 23.808 60.143 24.168 60.143 24.592V28H58.871V21.532H59.879L60.047 22.684H60.095C60.303 22.34 60.571 22.044 60.899 21.796C61.227 21.54 61.615 21.412 62.063 21.412ZM66.2423 21.412C67.0503 21.412 67.6543 21.592 68.0543 21.952C68.4623 22.304 68.6663 22.86 68.6663 23.62V28H67.7663L67.5143 27.1H67.4663C67.1863 27.452 66.8903 27.712 66.5783 27.88C66.2743 28.04 65.8503 28.12 65.3063 28.12C64.7223 28.12 64.2383 27.964 63.8543 27.652C63.4703 27.332 63.2783 26.836 63.2783 26.164C63.2783 25.508 63.5263 25.008 64.0223 24.664C64.5183 24.32 65.2823 24.132 66.3143 24.1L67.4183 24.064V23.704C67.4183 23.232 67.3103 22.9 67.0943 22.708C66.8783 22.508 66.5743 22.408 66.1823 22.408C65.8543 22.408 65.5383 22.456 65.2343 22.552C64.9303 22.648 64.6383 22.764 64.3583 22.9L63.9503 21.976C64.2543 21.816 64.6023 21.684 64.9943 21.58C65.3943 21.468 65.8103 21.412 66.2423 21.412ZM66.5423 24.916C65.8063 24.948 65.2943 25.072 65.0063 25.288C64.7263 25.496 64.5863 25.792 64.5863 26.176C64.5863 26.512 64.6863 26.756 64.8863 26.908C65.0863 27.06 65.3463 27.136 65.6663 27.136C66.1623 27.136 66.5743 26.996 66.9023 26.716C67.2383 26.436 67.4063 26.016 67.4063 25.456V24.892L66.5423 24.916ZM73.9009 21.412C74.6529 21.412 75.2289 21.6 75.6289 21.976C76.0289 22.352 76.2289 22.956 76.2289 23.788V28H74.9689V23.968C74.9689 22.96 74.5249 22.456 73.6369 22.456C72.9729 22.456 72.5169 22.652 72.2689 23.044C72.0209 23.436 71.8969 24 71.8969 24.736V28H70.6249V21.532H71.6329L71.8129 22.396H71.8849C72.0929 22.06 72.3769 21.812 72.7369 21.652C73.1049 21.492 73.4929 21.412 73.9009 21.412ZM80.4035 28.12C79.6275 28.12 78.9995 27.84 78.5195 27.28C78.0475 26.72 77.8115 25.888 77.8115 24.784C77.8115 23.672 78.0515 22.832 78.5315 22.264C79.0115 21.696 79.6435 21.412 80.4275 21.412C80.9155 21.412 81.3155 21.504 81.6275 21.688C81.9395 21.872 82.1915 22.096 82.3835 22.36H82.4555C82.4395 22.256 82.4195 22.096 82.3955 21.88C82.3715 21.664 82.3595 21.472 82.3595 21.304V18.88H83.6315V28H82.6355L82.4195 27.136H82.3595C82.1755 27.416 81.9275 27.652 81.6155 27.844C81.3035 28.028 80.8995 28.12 80.4035 28.12ZM80.7035 27.076C81.3275 27.076 81.7675 26.904 82.0235 26.56C82.2795 26.208 82.4075 25.684 82.4075 24.988V24.796C82.4075 24.044 82.2835 23.468 82.0355 23.068C81.7955 22.66 81.3475 22.456 80.6915 22.456C80.1715 22.456 79.7795 22.668 79.5155 23.092C79.2515 23.508 79.1195 24.08 79.1195 24.808C79.1195 25.536 79.2515 26.096 79.5155 26.488C79.7795 26.88 80.1755 27.076 80.7035 27.076Z" fill="#5064CC"/>
<path d="M54.872 44L52.28 36.716H52.232C52.24 36.884 52.252 37.104 52.268 37.376C52.284 37.64 52.296 37.928 52.304 38.24C52.312 38.552 52.316 38.86 52.316 39.164V44H51.14V35.432H52.988L55.448 42.308H55.496L58.028 35.432H59.876V44H58.616V39.092C58.616 38.82 58.62 38.536 58.628 38.24C58.644 37.936 58.656 37.652 58.664 37.388C58.68 37.124 58.692 36.904 58.7 36.728H58.652L55.988 44H54.872ZM67.7116 40.76C67.7116 41.832 67.4356 42.66 66.8836 43.244C66.3316 43.828 65.5876 44.12 64.6516 44.12C64.0676 44.12 63.5476 43.988 63.0916 43.724C62.6436 43.46 62.2876 43.08 62.0236 42.584C61.7676 42.08 61.6396 41.472 61.6396 40.76C61.6396 39.688 61.9116 38.864 62.4556 38.288C62.9996 37.704 63.7436 37.412 64.6876 37.412C65.2796 37.412 65.7996 37.544 66.2476 37.808C66.7036 38.064 67.0596 38.44 67.3156 38.936C67.5796 39.432 67.7116 40.04 67.7116 40.76ZM62.9476 40.76C62.9476 41.488 63.0836 42.056 63.3556 42.464C63.6356 42.872 64.0756 43.076 64.6756 43.076C65.2756 43.076 65.7116 42.872 65.9836 42.464C66.2636 42.056 66.4036 41.488 66.4036 40.76C66.4036 40.024 66.2636 39.46 65.9836 39.068C65.7036 38.668 65.2636 38.468 64.6636 38.468C64.0636 38.468 63.6276 38.668 63.3556 39.068C63.0836 39.46 62.9476 40.024 62.9476 40.76ZM70.5961 37.076C70.5961 37.34 70.5881 37.592 70.5721 37.832C70.5561 38.072 70.5441 38.256 70.5361 38.384H70.5961C70.7721 38.112 71.0161 37.884 71.3281 37.7C71.6481 37.516 72.0561 37.424 72.5521 37.424C73.3281 37.424 73.9521 37.704 74.4241 38.264C74.9041 38.824 75.1441 39.656 75.1441 40.76C75.1441 41.872 74.9041 42.712 74.4241 43.28C73.9441 43.84 73.3161 44.12 72.5401 44.12C72.0361 44.12 71.6281 44.032 71.3161 43.856C71.0121 43.672 70.7721 43.456 70.5961 43.208H70.5001L70.2601 44H69.3241V34.88H70.5961V37.076ZM72.2521 38.456C71.6281 38.456 71.1961 38.64 70.9561 39.008C70.7161 39.368 70.5961 39.924 70.5961 40.676V40.772C70.5961 41.516 70.7121 42.088 70.9441 42.488C71.1841 42.88 71.6281 43.076 72.2761 43.076C72.7881 43.076 73.1761 42.876 73.4401 42.476C73.7041 42.076 73.8361 41.5 73.8361 40.748C73.8361 39.22 73.3081 38.456 72.2521 38.456ZM77.4135 35.072C77.6055 35.072 77.7735 35.128 77.9175 35.24C78.0615 35.352 78.1335 35.54 78.1335 35.804C78.1335 36.06 78.0615 36.248 77.9175 36.368C77.7735 36.48 77.6055 36.536 77.4135 36.536C77.2055 36.536 77.0295 36.48 76.8855 36.368C76.7495 36.248 76.6815 36.06 76.6815 35.804C76.6815 35.54 76.7495 35.352 76.8855 35.24C77.0295 35.128 77.2055 35.072 77.4135 35.072ZM78.0375 37.532V44H76.7655V37.532H78.0375ZM81.3071 44H80.0351V34.88H81.3071V44ZM85.8486 37.412C86.6966 37.412 87.3646 37.676 87.8526 38.204C88.3406 38.724 88.5846 39.436 88.5846 40.34V41.036H84.2406C84.2566 41.7 84.4286 42.208 84.7566 42.56C85.0926 42.912 85.5606 43.088 86.1606 43.088C86.5766 43.088 86.9446 43.052 87.2646 42.98C87.5926 42.9 87.9286 42.784 88.2726 42.632V43.688C87.9446 43.832 87.6166 43.94 87.2886 44.012C86.9606 44.084 86.5686 44.12 86.1126 44.12C85.4806 44.12 84.9246 43.996 84.4446 43.748C83.9726 43.5 83.6006 43.132 83.3286 42.644C83.0646 42.148 82.9326 41.54 82.9326 40.82C82.9326 40.092 83.0526 39.476 83.2926 38.972C83.5406 38.468 83.8806 38.084 84.3126 37.82C84.7526 37.548 85.2646 37.412 85.8486 37.412ZM85.8486 38.396C85.3926 38.396 85.0246 38.544 84.7446 38.84C84.4726 39.136 84.3126 39.556 84.2646 40.1H87.3126C87.3046 39.596 87.1806 39.188 86.9406 38.876C86.7086 38.556 86.3446 38.396 85.8486 38.396Z" fill="#44099F"/>
</svg>
