<svg width="40" height="40" viewBox="0 0 40 40" fill="none" xmlns="http://www.w3.org/2000/svg">
<circle cx="20.0001" cy="20" r="16" fill="#2741D7"/>
<path d="M16.5057 14.197V25.8334H14.0455V16.5322H13.9773L11.3125 18.2027V16.0209L14.1932 14.197H16.5057ZM23.8338 26.0891C22.8565 26.0853 22.0156 25.8447 21.3111 25.3675C20.6103 24.8902 20.0705 24.1989 19.6918 23.2936C19.3168 22.3883 19.1312 21.2993 19.1349 20.0266C19.1349 18.7576 19.3224 17.6762 19.6974 16.7822C20.0762 15.8883 20.616 15.2084 21.3168 14.7425C22.0213 14.2728 22.8603 14.0379 23.8338 14.0379C24.8073 14.0379 25.6444 14.2728 26.3452 14.7425C27.0497 15.2122 27.5914 15.894 27.9702 16.7879C28.349 17.6781 28.5365 18.7576 28.5327 20.0266C28.5327 21.3031 28.3433 22.394 27.9645 23.2993C27.5895 24.2046 27.0516 24.8959 26.3509 25.3731C25.6501 25.8504 24.8111 26.0891 23.8338 26.0891ZM23.8338 24.0493C24.5005 24.0493 25.0327 23.7141 25.4304 23.0436C25.8281 22.3731 26.0251 21.3675 26.0213 20.0266C26.0213 19.144 25.9304 18.4091 25.7486 17.822C25.5705 17.2349 25.3168 16.7936 24.9872 16.4981C24.6615 16.2027 24.277 16.055 23.8338 16.055C23.1709 16.055 22.6406 16.3864 22.2429 17.0493C21.8452 17.7122 21.6444 18.7046 21.6406 20.0266C21.6406 20.9205 21.7296 21.6667 21.9077 22.2652C22.0895 22.8599 22.3452 23.3069 22.6747 23.6061C23.0043 23.9016 23.3906 24.0493 23.8338 24.0493Z" fill="white"/>
<path d="M40 20C40 15.3729 38.3956 10.8889 35.4602 7.31213C32.5248 3.73533 28.44 1.287 23.9018 0.384295C19.3636 -0.518409 14.6528 0.180372 10.5721 2.36157C6.49132 4.54278 3.29313 8.07144 1.52241 12.3463C-0.248307 16.6212 -0.481985 21.3778 0.861193 25.8057C2.20437 30.2336 5.0413 34.0587 8.88859 36.6294C12.7359 39.2001 17.3555 40.3572 21.9603 39.9037C26.5652 39.4502 30.8703 37.414 34.1421 34.1421L32.7279 32.7279C29.7832 35.6726 25.9086 37.5051 21.7643 37.9133C17.62 38.3215 13.4623 37.2801 9.99973 34.9665C6.53717 32.6528 3.98393 29.2102 2.77507 25.2251C1.56621 21.24 1.77652 16.9591 3.37017 13.1117C4.96381 9.2643 7.84219 6.0885 11.5149 4.12542C15.1875 2.16233 19.4272 1.53343 23.5116 2.34587C27.596 3.1583 31.2723 5.3618 33.9142 8.58092C36.5561 11.8 38 15.8356 38 20H40Z" fill="#2741D7"/>
</svg>
