<svg width="414" height="206" viewBox="0 0 414 206" fill="none" xmlns="http://www.w3.org/2000/svg">
<path d="M110.068 390.473C117.784 383.929 124.409 376.199 129.696 367.573C145.88 374.547 163.323 378.127 180.945 378.093C245.911 378.093 299.204 330.55 304.536 270.022C307.458 270.257 310.41 270.377 313.392 270.382C329.501 270.399 345.411 266.828 359.967 259.928C364.006 275.29 371.954 289.344 383.039 300.722C394.123 312.099 407.965 320.411 423.217 324.85C422.883 327.625 422.716 330.418 422.714 333.214C422.714 356.898 434.532 377.939 452.839 391.271C487.611 393.136 515.524 395.531 533.711 398.275C558.503 386.218 575.487 361.613 575.487 333.218C575.487 304.699 558.354 280.004 533.384 268.005C537.142 257.706 539.058 246.827 539.046 235.864C539.046 184.811 498.253 143.425 447.943 143.425C439.519 143.418 431.137 144.595 423.04 146.921C417.317 90.6023 370.411 46.6784 313.394 46.6784C290.31 46.6571 267.82 53.988 249.182 67.6082C235.21 49.8885 217.387 35.581 197.066 25.7693C176.745 15.9577 154.457 10.8992 131.891 10.977C50.2273 10.977 -15.9732 75.8025 -15.9732 155.771C-15.996 183.072 -8.14311 209.799 6.64362 232.749C-8.36385 240.793 -20.9617 252.683 -29.8577 267.202C-38.7537 281.72 -43.6274 298.343 -43.9795 315.367C-44.3315 332.39 -40.1491 349.201 -31.861 364.074C-23.5728 378.948 -11.4772 391.349 3.18487 400.006C22.2299 396.114 60.2413 392.779 110.068 390.473Z" fill="white"/>
<path d="M94.1364 205.973H42.1853L0 53.4902L62.7527 54.4671L94.1364 205.973Z" fill="#47C1E7"/>
<path d="M62.7527 54.4717L0 53.4949L105.143 28.9735L187.76 38.3658L62.7527 54.4717Z" fill="#ABE3F4"/>
<path d="M187.761 38.3659L173.795 205.973H94.1378L62.7529 54.4731L187.761 38.3659Z" fill="#88D7EF"/>
<path d="M16.7509 53.7392L41.8978 54.0587L72.9926 205.973H54.9306L16.7509 53.7392Z" fill="#5D69E6"/>
<path d="M41.4853 54.0111L41.8969 54.059L72.9905 205.973H72.1514L41.4853 54.0111Z" fill="#3A45D2"/>
<path d="M104.98 48.8553L146.98 43.7328L149.045 205.973H124.962L104.98 48.8553Z" fill="url(#paint0_linear_253_302)"/>
<path d="M104.981 48.8775L105.753 48.8554L125.594 205.973H124.965L104.981 48.8775Z" fill="#3A45D2"/>
<path d="M146.978 43.7328L79.851 35.235L56.2278 40.2727L105.302 48.8921L146.978 43.7328Z" fill="#5D69E6"/>
<path d="M105.915 48.8675L57.3503 40.1437L56.1498 40.2801L104.981 49.1034L105.915 48.8675Z" fill="#0614C1"/>
<path d="M41.8975 54.0588L156.702 34.7791L138.829 32.7996L16.7518 53.7393L41.8975 54.0588Z" fill="#8E9AFD"/>
<path d="M41.9599 54.2261L156.702 34.7781L155.016 34.6073L41.5139 54.0209L41.9599 54.2261Z" fill="#0614C1"/>
<g style="mix-blend-mode:multiply" opacity="0.5">
<g style="mix-blend-mode:multiply" opacity="0.5">
<path d="M121.411 45.1472L82.262 40.6993L82.5556 43.1997C73.9055 44.8905 57.9202 50.6052 47.3901 48.3333C39.2806 46.5824 29.1929 48.8592 29.1929 48.8592C9.68586 55.7904 51.381 54.0308 62.0449 54.3073C63.8696 53.7777 79.2675 49.5448 85.3619 46.3206C99.9983 51.3633 121.411 45.1472 121.411 45.1472Z" fill="#999999"/>
</g>
</g>
<path d="M78.3439 43.6346L101.468 37.1691C94.0122 33.6796 69.3324 28.9282 70.045 7.04609C70.1335 4.37242 71.1745 2.10546 73.7842 1.37561C48.8746 8.33994 48.7639 7.65305 47.4615 9.78609C43.8417 15.6937 51.607 31.5466 60.7031 36.6949C62.8435 37.9113 74.3592 41.7559 78.3439 43.6346Z" fill="url(#paint1_linear_253_302)"/>
<path d="M69.4869 18.8207C74.1375 26.1672 78.5068 34.2926 80.0611 42.4844L98.2338 41.1956C94.7061 22.5597 92.4049 -1.79824 73.4766 0.105029C73.0711 0.145576 74.5674 -0.220592 49.8851 6.68107C54.2839 5.45113 62.5803 7.91224 69.4869 18.8207Z" fill="url(#paint2_linear_253_302)"/>
<path d="M66.9391 15.2036C75.8411 26.5188 80.9636 43.1788 81.1356 44.0893C80.9943 44.0229 76.475 43.3877 62.5955 38.0969C58.7836 36.4102 55.4825 33.7508 53.0229 30.3855C44.7979 19.9304 41.6744 3.89327 54.808 6.75494C59.6627 7.81531 63.672 11.0432 66.9391 15.2036ZM62.6264 37.4113C75.6888 42.3888 80.0508 42.9527 80.1835 43.0154C80.0213 42.1553 75.0915 26.5138 66.713 15.8609C63.6326 11.945 59.858 8.90398 55.297 7.90873C42.9337 5.21417 45.8753 20.3088 53.6174 30.1483C55.9324 33.3159 59.0397 35.819 62.6276 37.4063L62.6264 37.4113Z" fill="#3A45D2"/>
<path d="M142.586 12.0641L121.956 3.20752C134.968 8.90259 124.512 30.8289 108.532 31.7492C90.2818 32.7985 86.753 33.231 86.5674 33.2532L98.5978 41.8971C98.7833 41.875 106.878 40.0627 125.128 39.0133C141.314 38.0832 155.547 17.737 142.586 12.0641Z" fill="url(#paint3_linear_253_302)"/>
<path d="M143.703 11.2457L144.629 11.43L143.695 11.102C126.985 3.78623 122.439 1.55241 118.404 0.982288C100.04 -1.61398 90.4234 16.6446 85.2125 34.069L97.7206 42.1195C104.749 21.949 127.528 4.16468 143.703 11.2457Z" fill="url(#paint4_linear_253_302)"/>
<path d="M136.881 9.63111C159.313 11.0687 146.999 34.3196 129.818 38.9678C128.292 39.3845 126.728 39.6424 125.149 39.737C105.756 40.8502 93.2084 42.7854 97.3529 42.2189C97.7375 40.9312 107.107 16.2182 128.448 10.4543C131.194 9.71737 134.044 9.43923 136.881 9.63111ZM129.527 38.2883C145.695 33.9141 157.283 12.0344 136.173 10.6792C133.502 10.4973 130.819 10.7589 128.234 11.4533C110.418 16.2735 99.0694 40.1904 98.707 41.4019C98.8913 41.3797 106.879 40.0613 125.124 39.012C126.611 38.923 128.085 38.68 129.522 38.287L129.527 38.2883Z" fill="#6372EF"/>
<path d="M114.965 17.4717L93.884 20.0409C79.8767 21.7488 81.3598 42.815 81.1583 43.9885L97.3991 42.1515C97.6043 40.9794 100.96 19.1796 114.965 17.4717Z" fill="#3A45D2"/>
<path d="M118.883 45.8656C115.481 46.1248 103.198 42.6845 97.2269 42.0112L79.057 44.1515C84.6743 46.6017 90.6572 48.1086 96.765 48.6117C97.9409 48.6277 95.8127 48.6793 118.883 45.8656Z" fill="#6372EF"/>
<path d="M125.69 18.6817C118.563 15.0226 114.343 16.5548 93.9427 19.0418C98.823 18.6807 103.665 20.1332 107.541 23.1211C118.108 31.5119 110.595 47.7038 98.742 49.15L119.818 46.5796C133.025 44.9651 140.194 26.1252 125.69 18.6817Z" fill="url(#paint5_linear_253_302)"/>
<path d="M101.616 19.9831C120.519 26.4707 112.116 48.1451 98.107 49.2129C96.8194 49.3095 95.5246 49.2325 94.2574 48.9843C78.1109 45.8498 80.9713 43.6836 80.8067 43.6652C81.0242 42.3984 79.1835 20.1514 94.6186 18.9755C96.9955 18.8287 99.3773 19.1716 101.616 19.9831ZM97.807 48.4351C110.989 47.4312 118.9 27.0322 101.11 20.9267C99.0026 20.1629 96.7612 19.84 94.5241 19.9781C79.9971 21.084 82.0772 41.9168 81.8683 43.1086C82.0219 43.1258 78.9797 45.2723 94.1776 48.22C95.3703 48.4537 96.589 48.5261 97.801 48.4351H97.807Z" fill="url(#paint6_linear_253_302)"/>
<path d="M67.8411 23.786C67.5429 23.6828 67.2399 23.5866 66.9319 23.4973L50.203 18.6783C50.5102 18.7668 50.8133 18.863 51.1122 18.967C59.6751 21.9331 65.7068 31.3425 68.0364 40.0099L80.9379 43.7697C80.7118 42.9317 80.2634 28.089 67.8411 23.786Z" fill="#3A45D2"/>
<path d="M68.0368 40.0085C67.8513 40.0453 64.325 40.7371 46.0319 45.5377C42.5838 46.4721 38.9469 46.4543 35.5081 45.4861L52.237 50.3051C55.6758 51.2733 59.3127 51.2911 62.7608 50.3567C81.0539 45.5524 81.0035 43.7524 81.1915 43.7155L68.0368 40.0085Z" fill="#3A45D2"/>
<path d="M67.1355 22.5696L50.4054 17.7506C29.5985 11.757 8.62936 38.7026 34.8009 46.242L51.5297 51.061C38.5423 47.3195 32.7967 31.2579 52.3565 23.7038C57.0241 21.7021 62.2233 21.3033 67.1415 22.5696H67.1355Z" fill="url(#paint7_linear_253_302)"/>
<path d="M68.1027 22.8768C81.3015 27.4489 81.2376 42.9281 81.4772 43.8177C81.2807 43.8558 82.1431 46.011 62.7049 51.1162C58.7037 52.2056 54.4687 52.0773 50.5408 50.7476C38.298 46.5061 33.2993 31.0637 52.3554 23.7037C58.58 21.2991 63.7912 21.384 68.1027 22.8768ZM62.7601 50.3606C81.0531 45.5563 79.9709 43.4467 80.1576 43.4098C79.9328 42.5731 80.2631 28.0877 67.8408 23.7848C63.7861 22.3792 58.8812 22.3005 53.0141 24.565C35.075 31.49 39.782 46.022 51.3049 50.0128C55.0038 51.2651 58.9922 51.3858 62.7601 50.3594V50.3606Z" fill="#8593FF"/>
<path d="M203.16 207.312L174.755 205.537V75.1795L203.16 73.4077V207.312Z" fill="#175D99"/>
<g clip-path="url(#clip0_253_302)">
<path d="M336.56 73.4038H202.651V207.312H336.56V73.4038Z" fill="#4DA3F8"/>
<path d="M219.896 73.4038H189.717V207.312H219.896V73.4038Z" fill="#217CC5"/>
<path d="M262.28 22.2699L259.231 19.2217L147.345 131.108L150.393 134.156L262.28 22.2699Z" fill="#3993F3"/>
<path d="M269.132 29.1215L266.083 26.0728L154.179 137.976L157.228 141.025L269.132 29.1215Z" fill="#3993F3"/>
<path d="M275.98 35.9711L272.931 32.9229L161.045 144.809L164.093 147.858L275.98 35.9711Z" fill="#3993F3"/>
<path d="M282.826 42.8168L279.777 39.7681L167.872 151.67L170.92 154.718L282.826 42.8168Z" fill="#3993F3"/>
<path d="M289.676 49.6675L286.628 46.6187L174.718 158.516L177.767 161.565L289.676 49.6675Z" fill="#3993F3"/>
<path d="M296.516 56.5054L293.467 53.457L181.575 165.372L184.624 168.421L296.516 56.5054Z" fill="#3993F3"/>
<path d="M303.369 63.3617L300.321 60.3135L188.435 172.2L191.483 175.248L303.369 63.3617Z" fill="#3993F3"/>
<path d="M310.217 70.2074L307.168 67.1587L189.731 184.595L192.78 187.644L310.217 70.2074Z" fill="#3993F3"/>
<path d="M332.024 62.0876L328.975 59.0391L187.153 200.877L190.201 203.925L332.024 62.0876Z" fill="#3993F3"/>
<path d="M338.872 68.9348L335.823 65.8862L194 207.724L197.049 210.772L338.872 68.9348Z" fill="#3993F3"/>
<path d="M345.726 75.7891L342.678 72.7402L200.84 214.563L203.888 217.612L345.726 75.7891Z" fill="#3993F3"/>
<path d="M352.566 82.6306L349.517 79.582L207.695 221.42L210.743 224.468L352.566 82.6306Z" fill="#3993F3"/>
<path d="M344.456 104.446L341.408 101.398L229.521 213.285L232.57 216.333L344.456 104.446Z" fill="#3993F3"/>
<path d="M351.306 111.298L348.258 108.25L236.371 220.136L239.419 223.184L351.306 111.298Z" fill="#3993F3"/>
<path d="M358.152 118.143L355.103 115.094L243.194 226.992L246.243 230.041L358.152 118.143Z" fill="#3993F3"/>
<path d="M364.994 124.985L361.946 121.937L250.06 233.824L253.108 236.872L364.994 124.985Z" fill="#3993F3"/>
<path d="M371.841 131.832L368.792 128.784L256.894 240.693L259.943 243.742L371.841 131.832Z" fill="#3993F3"/>
<path d="M378.69 138.679L375.641 135.631L263.743 247.541L266.792 250.59L378.69 138.679Z" fill="#3993F3"/>
<path d="M385.535 145.527L382.487 142.479L270.601 254.365L273.649 257.413L385.535 145.527Z" fill="#3993F3"/>
<path d="M392.39 152.379L389.342 149.331L277.455 261.218L280.503 264.266L392.39 152.379Z" fill="#3993F3"/>
<path d="M219.754 125.032V153.364L274.198 207.796H302.533L219.754 125.032Z" fill="url(#paint8_linear_253_302)"/>
</g>
<g style="mix-blend-mode:multiply">
<path d="M212.58 73.2529L192.414 206.407C192.414 206.407 177.586 207.297 177.586 206.407C177.586 205.517 197.158 73.8464 197.158 73.8464L212.58 73.2529Z" fill="#D6DEFE"/>
</g>
<path d="M219.754 125.032H192.568L185.748 153.473L219.761 153.368L219.754 125.032Z" fill="url(#paint9_linear_253_302)"/>
<path d="M336.843 155.795V127.461L282.397 73.0352H254.062L336.843 155.795Z" fill="#E2E8FE"/>
<g style="mix-blend-mode:multiply">
<path d="M302.522 114.112C302.522 114.112 307.815 154.988 307.223 169.222C306.63 183.457 305.642 184.87 305.642 184.87C305.642 184.87 316.118 182.567 321.457 179.601C326.796 176.635 327.981 165.963 327.092 159.436C326.202 152.909 303.667 112.856 303.667 112.856L302.522 114.112Z" fill="#E6E6E6"/>
</g>
<g style="mix-blend-mode:multiply">
<path d="M301.587 116.139C301.587 116.139 285.869 134.821 278.159 142.533C270.449 150.244 266.593 154.395 260.069 154.697C253.544 154.999 244.943 142.835 242.572 140.462C240.201 138.09 245.834 139.276 251.469 137.2C257.104 135.123 301.587 116.139 301.587 116.139Z" fill="#E6E6E6"/>
</g>
<g style="mix-blend-mode:multiply">
<path d="M303.666 112.855C322.05 121.772 336.877 120.882 336.877 120.882L336.284 106.647L303.666 112.855Z" fill="#E6E6E6"/>
</g>
<g style="mix-blend-mode:multiply">
<path d="M261.847 72.8413C255.916 83.5176 270.744 100.119 284.086 105.462C297.429 110.806 300.397 111.393 300.397 111.393L266.42 73.2345L261.847 72.8413Z" fill="#E6E6E6"/>
</g>
<path d="M303.344 112.227C303.344 112.227 329.164 117.485 339.909 112.4C350.654 107.314 358.678 101.71 357.603 98.9955C356.527 96.2813 342.906 82.1364 339.179 73.3425C335.452 64.5486 321.863 93.5524 315.801 99.3912C309.738 105.23 303.344 112.227 303.344 112.227Z" fill="url(#paint10_linear_253_302)"/>
<path d="M302.167 112.083C310.597 113.085 336.701 84.1761 339.283 77.5238C341.864 70.8716 332.629 66.5883 325.806 80.4948C318.983 94.4014 302.167 112.083 302.167 112.083Z" fill="url(#paint11_radial_253_302)"/>
<path d="M303.666 112.857C313.004 97.8664 300.974 60.2433 291.302 56.3102C281.629 52.3771 285.888 60.0406 275.776 64.8031C265.665 69.5656 262.006 71.9148 272.91 88.9189C283.813 105.923 303.666 112.857 303.666 112.857Z" fill="url(#paint12_linear_253_302)"/>
<path d="M303.377 113.618C287.896 84.935 267.17 66.9615 266.424 73.2353C265.679 79.5091 269.039 84.6807 277.159 94.992C285.28 105.303 303.377 113.618 303.377 113.618Z" fill="url(#paint13_radial_253_302)"/>
<path d="M305.384 113.459C333.105 129.48 329.191 170.77 329.191 170.77C329.191 170.77 311.711 184.002 305.642 184.87C307.761 178.76 313.203 171.454 310.189 146.639C307.175 121.824 302.522 114.113 302.522 114.113L305.384 113.459Z" fill="url(#paint14_radial_253_302)"/>
<path d="M299.609 110.188C287.156 110.398 275.118 114.696 265.347 122.419C248.895 135.374 242.573 135.021 242.573 135.021C242.573 135.021 255.782 152.698 262.948 150.964C270.114 149.23 293.981 127.413 297.106 121.229C300.23 115.045 301.073 112.951 301.073 112.951L299.609 110.188Z" fill="url(#paint15_radial_253_302)"/>
<path d="M308.153 111.899C308.003 112.837 307.581 113.709 306.94 114.409C306.298 115.108 305.464 115.603 304.543 115.833C303.622 116.063 302.654 116.016 301.759 115.7C300.864 115.384 300.082 114.811 299.51 114.054C298.938 113.296 298.6 112.387 298.541 111.44C298.481 110.492 298.701 109.548 299.174 108.725C299.646 107.902 300.351 107.236 301.199 106.81C302.047 106.384 303.002 106.216 303.945 106.328C305.241 106.509 306.413 107.198 307.202 108.243C307.992 109.287 308.333 110.603 308.153 111.899Z" fill="url(#paint16_radial_253_302)"/>
<defs>
<linearGradient id="paint0_linear_253_302" x1="151.337" y1="-37.3873" x2="-13.7993" y2="45.135" gradientUnits="userSpaceOnUse">
<stop offset="0.02" stop-color="#384BE5"/>
<stop offset="0.288" stop-color="#8F9BFF"/>
<stop offset="0.399" stop-color="#8A96FC"/>
<stop offset="0.523" stop-color="#7D89F6"/>
<stop offset="0.653" stop-color="#6673EC"/>
<stop offset="0.787" stop-color="#4754DE"/>
<stop offset="0.923" stop-color="#1F2DCC"/>
<stop offset="1" stop-color="#0614C1"/>
</linearGradient>
<linearGradient id="paint1_linear_253_302" x1="92.6816" y1="-72.4086" x2="57.3744" y2="-108.64" gradientUnits="userSpaceOnUse">
<stop offset="0.02" stop-color="#6372EF"/>
<stop offset="0.394" stop-color="#8593FF"/>
<stop offset="1" stop-color="#3A45D2"/>
</linearGradient>
<linearGradient id="paint2_linear_253_302" x1="42.7779" y1="-123.247" x2="87.3114" y2="-64.4728" gradientUnits="userSpaceOnUse">
<stop offset="0.02" stop-color="#6372EF"/>
<stop offset="0.394" stop-color="#8593FF"/>
<stop offset="1" stop-color="#3A45D2"/>
</linearGradient>
<linearGradient id="paint3_linear_253_302" x1="84.9186" y1="-95.6057" x2="142.26" y2="-95.6057" gradientUnits="userSpaceOnUse">
<stop offset="0.02" stop-color="#6372EF"/>
<stop offset="0.394" stop-color="#8593FF"/>
<stop offset="1" stop-color="#3A45D2"/>
</linearGradient>
<linearGradient id="paint4_linear_253_302" x1="139.698" y1="-134.181" x2="108.79" y2="-73.4695" gradientUnits="userSpaceOnUse">
<stop offset="0.02" stop-color="#6372EF"/>
<stop offset="0.394" stop-color="#8593FF"/>
<stop offset="1" stop-color="#3A45D2"/>
</linearGradient>
<linearGradient id="paint5_linear_253_302" x1="104.637" y1="-107.844" x2="114.577" y2="-69.2409" gradientUnits="userSpaceOnUse">
<stop offset="0.02" stop-color="#6372EF"/>
<stop offset="0.394" stop-color="#A9B3FF"/>
<stop offset="1" stop-color="#3A45D2"/>
</linearGradient>
<linearGradient id="paint6_linear_253_302" x1="79.7504" y1="-111.727" x2="110.424" y2="-111.727" gradientUnits="userSpaceOnUse">
<stop offset="0.02" stop-color="#6372EF"/>
<stop offset="0.394" stop-color="#8593FF"/>
<stop offset="1" stop-color="#3A45D2"/>
</linearGradient>
<linearGradient id="paint7_linear_253_302" x1="19.7397" y1="-348.281" x2="20.815" y2="-309.577" gradientUnits="userSpaceOnUse">
<stop offset="0.02" stop-color="#6372EF"/>
<stop offset="0.514" stop-color="#9FAAFF"/>
<stop offset="1" stop-color="#3A45D2"/>
</linearGradient>
<linearGradient id="paint8_linear_253_302" x1="274.388" y1="110.631" x2="246.254" y2="229.234" gradientUnits="userSpaceOnUse">
<stop offset="0.165" stop-color="#EBEFFF"/>
<stop offset="0.474" stop-color="#D7E0FF"/>
<stop offset="1" stop-color="#AFC0FF"/>
</linearGradient>
<linearGradient id="paint9_linear_253_302" x1="297.583" y1="98.383" x2="188.75" y2="167.861" gradientUnits="userSpaceOnUse">
<stop offset="0.165" stop-color="#EBEFFF"/>
<stop offset="0.474" stop-color="#D7E0FF"/>
<stop offset="1" stop-color="#AFC0FF"/>
</linearGradient>
<linearGradient id="paint10_linear_253_302" x1="420.752" y1="-36.3361" x2="391.915" y2="5.41459" gradientUnits="userSpaceOnUse">
<stop stop-color="#C8D4FF"/>
<stop offset="0.076" stop-color="#E2E8FF"/>
<stop offset="0.153" stop-color="#F7F9FF"/>
<stop offset="0.205" stop-color="white"/>
<stop offset="0.434" stop-color="#EBEFFF"/>
<stop offset="0.898" stop-color="#BAC9FF"/>
<stop offset="1" stop-color="#AFC0FF"/>
</linearGradient>
<radialGradient id="paint11_radial_253_302" cx="0" cy="0" r="1" gradientUnits="userSpaceOnUse" gradientTransform="translate(618.02 723.488) rotate(6.24109) scale(49.2071 49.3156)">
<stop offset="0.165" stop-color="#EBEFFF"/>
<stop offset="0.474" stop-color="#D7E0FF"/>
<stop offset="1" stop-color="#AFC0FF"/>
</radialGradient>
<linearGradient id="paint12_linear_253_302" x1="344.329" y1="-50.2421" x2="386.014" y2="-24.3358" gradientUnits="userSpaceOnUse">
<stop stop-color="#C8D4FF"/>
<stop offset="0.076" stop-color="#E2E8FF"/>
<stop offset="0.153" stop-color="#F7F9FF"/>
<stop offset="0.205" stop-color="white"/>
<stop offset="0.546" stop-color="#D5DEFF"/>
<stop offset="0.834" stop-color="#B9C8FF"/>
<stop offset="1" stop-color="#AFC0FF"/>
</linearGradient>
<radialGradient id="paint13_radial_253_302" cx="0" cy="0" r="1" gradientUnits="userSpaceOnUse" gradientTransform="translate(778.504 680.192) rotate(6.03578) scale(40.2939 40.4004)">
<stop offset="0.165" stop-color="#EBEFFF"/>
<stop offset="0.474" stop-color="#D7E0FF"/>
<stop offset="1" stop-color="#AFC0FF"/>
</radialGradient>
<radialGradient id="paint14_radial_253_302" cx="0" cy="0" r="1" gradientUnits="userSpaceOnUse" gradientTransform="translate(8411.39 748.52) rotate(2.55923) scale(27.4676 27.8029)">
<stop offset="0.165" stop-color="#EBEFFF"/>
<stop offset="0.474" stop-color="#D7E0FF"/>
<stop offset="1" stop-color="#AFC0FF"/>
</radialGradient>
<radialGradient id="paint15_radial_253_302" cx="0" cy="0" r="1" gradientUnits="userSpaceOnUse" gradientTransform="translate(-1347.39 715.393) rotate(9.64969) scale(25.4502 25.0932)">
<stop offset="0.165" stop-color="#EBEFFF"/>
<stop offset="0.474" stop-color="#D7E0FF"/>
<stop offset="1" stop-color="#AFC0FF"/>
</radialGradient>
<radialGradient id="paint16_radial_253_302" cx="0" cy="0" r="1" gradientUnits="userSpaceOnUse" gradientTransform="translate(347.509 707.034) rotate(6.52302) scale(4.92108 4.7469)">
<stop offset="0.165" stop-color="#EBEFFF"/>
<stop offset="0.474" stop-color="#D7E0FF"/>
<stop offset="1" stop-color="#AFC0FF"/>
</radialGradient>
<clipPath id="clip0_253_302">
<rect width="146.843" height="133.909" fill="white" transform="translate(189.717 73.4038)"/>
</clipPath>
</defs>
</svg>
