<svg width="55" height="56" viewBox="0 0 55 56" fill="none" xmlns="http://www.w3.org/2000/svg">
<g id="Group 14224">
<g id="Ellipse 1336">
<path id="Vector" d="M27.5 55.6794C42.6878 55.6794 55 43.3673 55 28.1794C55 12.9916 42.6878 0.679443 27.5 0.679443C12.3122 0.679443 0 12.9916 0 28.1794C0 43.3673 12.3122 55.6794 27.5 55.6794Z" fill="white"/>
<path id="Vector_2" d="M27.5 54.6794C42.1355 54.6794 54 42.815 54 28.1794C54 13.5439 42.1355 1.67944 27.5 1.67944C12.8645 1.67944 1 13.5439 1 28.1794C1 42.815 12.8645 54.6794 27.5 54.6794Z" stroke="#A52DBC" stroke-width="2"/>
</g>
<g id="Mask Group 6">
<path id="win (1)" d="M4.80101 31.8395C5.73918 33.2695 6.19669 34.9615 6.10701 36.6695L6.08601 37.0515C6.02306 38.1945 6.29457 39.3311 6.86732 40.3223C7.44008 41.3135 8.28925 42.1163 9.31101 42.6325L9.63301 42.7955C11.1571 43.5609 12.3936 44.7974 13.159 46.3215L13.322 46.6435C13.838 47.6655 14.6407 48.515 15.6319 49.0879C16.6231 49.6609 17.7599 49.9325 18.903 49.8695L19.285 49.8485C19.428 49.8405 19.572 49.8365 19.715 49.8365C21.2786 49.8387 22.8077 50.2967 24.115 51.1545L24.394 51.3375C25.3559 51.9729 26.4832 52.3116 27.636 52.3116C28.7888 52.3116 29.9161 51.9729 30.878 51.3375L31.157 51.1545C32.5878 50.2155 34.281 49.758 35.99 49.8485L36.373 49.8695C37.5159 49.9324 38.6523 49.6608 39.6433 49.0881C40.6343 48.5153 41.437 47.6662 41.953 46.6445L42.116 46.3225C42.8825 44.799 44.1197 43.5632 45.644 42.7985L45.966 42.6355C46.9879 42.1194 47.8371 41.3166 48.4099 40.3254C48.9826 39.3342 49.2541 38.1975 49.191 37.0545L49.17 36.6715C49.0801 34.9624 49.5379 33.2693 50.477 31.8385L50.66 31.5605C51.2953 30.5986 51.6339 29.4712 51.6339 28.3185C51.6339 27.1658 51.2953 26.0384 50.66 25.0765L50.477 24.7975C49.5394 23.368 49.0823 21.6767 49.172 19.9695L49.193 19.5875C49.2558 18.4445 48.9843 17.3079 48.4115 16.3168C47.8388 15.3256 46.9897 14.5228 45.968 14.0065L45.644 13.8395C44.1202 13.0738 42.8837 11.8374 42.118 10.3135L41.955 9.9905C41.4381 8.96998 40.6354 8.12199 39.6447 7.55002C38.654 6.97805 37.5182 6.70684 36.376 6.7695L35.994 6.7905C34.2851 6.88054 32.592 6.42302 31.161 5.4845L30.882 5.3005C29.9201 4.66537 28.7927 4.32678 27.64 4.32678C26.4873 4.32678 25.36 4.66537 24.398 5.3005L24.119 5.4845C22.688 6.42302 20.9949 6.88054 19.286 6.7905L18.903 6.7695C17.7602 6.707 16.6239 6.97871 15.633 7.55143C14.642 8.12414 13.8394 8.97307 13.323 9.9945L13.16 10.3165C12.3939 11.8396 11.157 13.0751 9.63301 13.8395L9.31101 14.0025C8.28917 14.5186 7.43992 15.3214 6.86715 16.3126C6.29438 17.3038 6.02293 18.4404 6.08601 19.5835L6.10701 19.9665C6.19747 21.6755 5.73992 23.3687 4.80101 24.7995L4.61701 25.0785C3.98176 26.0404 3.6431 27.1678 3.6431 28.3205C3.6431 29.4732 3.98176 30.6006 4.61701 31.5625L4.80101 31.8395ZM40.492 23.8235C40.6066 23.81 40.7227 23.8204 40.833 23.8541C40.9434 23.8878 41.0455 23.944 41.133 24.0192C41.2205 24.0944 41.2915 24.1869 41.3414 24.291C41.3913 24.395 41.4191 24.5082 41.423 24.6235C41.423 25.3405 41.38 26.2235 41.339 27.0855C41.298 27.9475 41.255 28.8275 41.255 29.5415C41.255 29.9745 40.788 30.1365 40.493 30.1365C40.015 30.1365 39.718 29.9085 39.718 29.5415C39.718 28.8275 39.676 27.9415 39.634 27.0855C39.592 26.2295 39.55 25.3405 39.55 24.6235C39.55 24.1455 39.929 23.8235 40.493 23.8235H40.492ZM40.504 30.8325C40.7642 30.8377 41.0121 30.9441 41.1951 31.1292C41.3781 31.3142 41.4817 31.5633 41.484 31.8235C41.479 32.0829 41.3745 32.3304 41.1921 32.5149C41.0097 32.6993 40.7633 32.8066 40.504 32.8145C40.2413 32.8142 39.9894 32.7097 39.8036 32.5239C39.6178 32.3382 39.5133 32.0862 39.513 31.8235C39.5115 31.693 39.5362 31.5634 39.5854 31.4425C39.6347 31.3216 39.7077 31.2118 39.8 31.1195C39.8923 31.0272 40.0021 30.9542 40.123 30.9049C40.2439 30.8557 40.3735 30.831 40.504 30.8325ZM31.044 24.4695C31.044 24.0255 31.562 23.8265 32.061 23.8265C32.767 23.8265 33.048 23.9025 33.516 24.7995L35.363 28.2795V24.4545C35.363 23.9885 35.881 23.8235 36.345 23.8235C36.809 23.8235 37.327 23.9885 37.327 24.4545V32.1015C37.327 32.5435 36.794 32.7445 36.31 32.7445C36.0918 32.7724 35.8701 32.7363 35.672 32.6406C35.4739 32.5449 35.3079 32.3938 35.194 32.2055L33.006 28.2695V32.1025C33.006 32.5445 32.506 32.7455 32.024 32.7455C31.542 32.7455 31.042 32.5455 31.042 32.1025L31.044 24.4695ZM26.725 24.4575C26.725 23.9915 27.243 23.8265 27.707 23.8265C28.171 23.8265 28.689 23.9915 28.689 24.4575V32.1045C28.689 32.5465 28.189 32.7475 27.707 32.7475C27.225 32.7475 26.725 32.5475 26.725 32.1045V24.4575ZM15.078 23.8265C15.433 23.8265 15.669 23.9675 15.742 24.2265L17.5 30.1565L18.393 26.3335C18.476 25.9605 18.952 25.7905 19.359 25.7905C19.766 25.7905 20.241 25.9605 20.325 26.3345L21.218 30.1575L22.975 24.2265C23.0225 24.0934 23.1146 23.9809 23.2356 23.908C23.3566 23.8351 23.4992 23.8063 23.639 23.8265C24.219 23.8265 24.919 24.1885 24.919 24.6385C24.919 24.6985 24.9099 24.7582 24.892 24.8155L22.499 32.1495C22.3755 32.3794 22.185 32.5665 21.9529 32.6859C21.7208 32.8054 21.4579 32.8516 21.199 32.8185C20.639 32.8185 20.027 32.6095 19.921 32.1425L19.359 29.5835L18.798 32.1415C18.691 32.6085 18.079 32.8175 17.519 32.8175C17.019 32.8175 16.374 32.6415 16.219 32.1465L13.826 24.8125C13.8082 24.7555 13.7991 24.6962 13.799 24.6365C13.796 24.1845 14.497 23.8225 15.076 23.8225L15.078 23.8265Z" fill="#3DF985"/>
</g>
</g>
</svg>
