<svg width="56" height="59" viewBox="0 0 56 59" fill="none" xmlns="http://www.w3.org/2000/svg">
<g id="Group 16819">
<g id="Group 14225">
<g id="Ellipse 1336">
<path id="Vector" d="M28.178 58.8992C43.3658 58.8992 55.678 46.587 55.678 31.3992C55.678 16.2113 43.3658 3.89917 28.178 3.89917C12.9901 3.89917 0.677979 16.2113 0.677979 31.3992C0.677979 46.587 12.9901 58.8992 28.178 58.8992Z" fill="white"/>
<path id="Vector_2" d="M28.178 57.8992C42.8135 57.8992 54.678 46.0347 54.678 31.3992C54.678 16.7636 42.8135 4.89917 28.178 4.89917C13.5424 4.89917 1.67798 16.7636 1.67798 31.3992C1.67798 46.0347 13.5424 57.8992 28.178 57.8992Z" stroke="#A52DBC" stroke-width="2"/>
</g>
</g>
<g id="Group 16518">
<path id="Path 33649" d="M43.928 16.4422L43.379 16.0262L42.725 16.2422C42.7082 16.248 42.6902 16.2489 42.6729 16.2448C42.6556 16.2408 42.6398 16.2319 42.6273 16.2193C42.6149 16.2066 42.6063 16.1907 42.6026 16.1733C42.5988 16.156 42.5999 16.1379 42.606 16.1212L42.832 15.4702L42.4241 14.9152C42.4154 14.9006 42.4105 14.884 42.4099 14.867C42.4094 14.85 42.4132 14.8331 42.421 14.818C42.4288 14.8029 42.4404 14.79 42.4546 14.7806C42.4688 14.7712 42.4851 14.7655 42.5021 14.7642L43.1911 14.7782L43.5911 14.2192C43.6023 14.2066 43.6165 14.197 43.6325 14.1914C43.6484 14.1858 43.6656 14.1842 43.6823 14.187C43.699 14.1898 43.7147 14.1968 43.7279 14.2074C43.7412 14.2179 43.7516 14.2316 43.7581 14.2472L43.958 14.9062L44.614 15.1152C44.6296 15.122 44.6432 15.1326 44.6536 15.1461C44.6639 15.1596 44.6707 15.1755 44.6732 15.1923C44.6757 15.2091 44.6738 15.2262 44.6679 15.2422C44.6619 15.2581 44.652 15.2722 44.6391 15.2832L44.074 15.6772V16.3662C44.072 16.3822 44.0661 16.3976 44.0569 16.4109C44.0477 16.4242 44.0354 16.4351 44.021 16.4425C44.0067 16.45 43.9907 16.4539 43.9745 16.4538C43.9583 16.4538 43.9423 16.4498 43.928 16.4422Z" fill="#F47458"/>
<path id="Path 33650" d="M29.007 7.34819L28.457 6.93117L27.802 7.14818C27.7854 7.15188 27.7681 7.15128 27.7518 7.14647C27.7356 7.14166 27.7208 7.13279 27.7089 7.12068C27.697 7.10858 27.6883 7.09365 27.6838 7.07729C27.6793 7.06093 27.679 7.04368 27.6829 7.02718L27.909 6.37517L27.5 5.81917C27.4912 5.80456 27.4864 5.78799 27.4859 5.77098C27.4853 5.75397 27.4892 5.73709 27.497 5.72197C27.5048 5.70685 27.5163 5.69397 27.5305 5.68456C27.5447 5.67514 27.561 5.6695 27.578 5.66817L28.268 5.68218L28.668 5.12218C28.6792 5.10931 28.6935 5.09953 28.7096 5.09377C28.7257 5.088 28.7429 5.08644 28.7598 5.08925C28.7766 5.09206 28.7925 5.09912 28.8058 5.10979C28.8191 5.12045 28.8295 5.13438 28.836 5.15019L29.036 5.81017L29.6929 6.02019C29.7086 6.02694 29.7222 6.03756 29.7326 6.05104C29.7429 6.06452 29.7497 6.08043 29.7522 6.09725C29.7547 6.11406 29.7528 6.13123 29.7468 6.14714C29.7409 6.16305 29.7309 6.17718 29.718 6.18819L29.152 6.58217V7.27217C29.1499 7.2881 29.144 7.30331 29.1348 7.31648C29.1257 7.32966 29.1134 7.34043 29.0992 7.34789C29.085 7.35534 29.0692 7.35925 29.0531 7.3593C29.0371 7.35935 29.0212 7.35555 29.007 7.34819Z" fill="#F08296"/>
<path id="Path 33651" d="M21.848 42.9992L21.248 42.4162L20.4279 42.5792C20.407 42.5832 20.3854 42.5813 20.3655 42.5737C20.3456 42.5661 20.3282 42.5531 20.3153 42.5362C20.3023 42.5193 20.2943 42.4992 20.2921 42.478C20.29 42.4568 20.2937 42.4354 20.3029 42.4162L20.672 41.6662L20.2639 40.9372C20.2534 40.9185 20.2484 40.8972 20.2494 40.8757C20.2504 40.8542 20.2574 40.8335 20.2696 40.8158C20.2817 40.7981 20.2986 40.7842 20.3183 40.7756C20.338 40.767 20.3597 40.7641 20.381 40.7672L21.208 40.8872L21.776 40.2732C21.7905 40.2567 21.8093 40.2448 21.8304 40.2387C21.8514 40.2327 21.8738 40.2328 21.8948 40.239C21.9158 40.2452 21.9346 40.2572 21.9489 40.2738C21.9633 40.2903 21.9727 40.3106 21.976 40.3322L22.118 41.1562L22.877 41.5062C22.8964 41.5152 22.9129 41.5295 22.9247 41.5474C22.9364 41.5654 22.9429 41.5862 22.9434 41.6076C22.9439 41.629 22.9384 41.6502 22.9276 41.6687C22.9167 41.6871 22.9009 41.7023 22.882 41.7122L22.142 42.1023L22.042 42.9322C22.0391 42.9533 22.0304 42.9731 22.0169 42.9896C22.0034 43.006 21.9856 43.0184 21.9655 43.0254C21.9454 43.0323 21.9238 43.0335 21.903 43.0289C21.8823 43.0243 21.8633 43.014 21.848 42.9992Z" fill="#A8B5FF"/>
<path id="Path 33652" d="M19.135 4.09821C19.1244 3.96356 19.1673 3.83015 19.2543 3.72686C19.3413 3.62356 19.4655 3.55867 19.6 3.54621C19.7007 3.53746 19.8018 3.55881 19.8904 3.60753C19.979 3.65626 20.0512 3.73018 20.0977 3.81994C20.1443 3.90969 20.1632 4.01124 20.1521 4.11174C20.1409 4.21225 20.1001 4.30717 20.035 4.38451C19.9699 4.46185 19.8832 4.51811 19.786 4.54619C19.6889 4.57427 19.5856 4.57291 19.4893 4.54226C19.3929 4.5116 19.3078 4.45304 19.2447 4.374C19.1816 4.29495 19.1435 4.19897 19.135 4.09821ZM19.235 3.3042L18.882 1.12021C18.8751 1.07738 18.8769 1.0336 18.8875 0.991521C18.898 0.949441 18.917 0.909945 18.9433 0.875432C18.9696 0.840919 19.0026 0.812099 19.0404 0.790745C19.0781 0.769392 19.1199 0.755944 19.163 0.75121L19.383 0.727208C19.4261 0.722526 19.4698 0.726677 19.5113 0.7394C19.5528 0.752122 19.5912 0.77315 19.6244 0.801213C19.6575 0.829276 19.6845 0.863787 19.7039 0.902638C19.7232 0.94149 19.7345 0.983874 19.737 1.02721L19.871 3.2352L19.235 3.3042Z" fill="#F7CC7F"/>
<path id="Path 33653" d="M33.52 1.15218C33.5605 1.05465 33.6225 0.967545 33.7015 0.897407C33.7805 0.827269 33.8743 0.775915 33.9759 0.747184C34.0486 0.728295 34.1245 0.724169 34.1988 0.735069C34.2732 0.745968 34.3446 0.771675 34.4088 0.810645C34.473 0.849616 34.5288 0.90107 34.5729 0.961967C34.6169 1.02286 34.6482 1.09196 34.665 1.16518C34.765 1.51818 34.59 2.02018 33.931 2.60018C33.065 2.45318 32.653 2.11817 32.552 1.76517C32.5278 1.69398 32.5181 1.61867 32.5235 1.54368C32.529 1.46868 32.5495 1.39554 32.5837 1.32859C32.6179 1.26164 32.6652 1.20223 32.7228 1.15389C32.7803 1.10555 32.8472 1.06928 32.919 1.04719C33.0207 1.0182 33.1275 1.01257 33.2315 1.03075C33.3356 1.04894 33.4342 1.09046 33.52 1.15218Z" fill="#5FA1E7"/>
<path id="Path 33654" d="M32.3991 45.3851C32.4438 45.2761 32.5127 45.1786 32.6008 45.1003C32.6888 45.022 32.7935 44.9648 32.907 44.9331C32.988 44.9119 33.0725 44.9073 33.1553 44.9194C33.2382 44.9315 33.3177 44.96 33.3893 45.0034C33.4609 45.0467 33.5231 45.1039 33.5722 45.1717C33.6213 45.2395 33.6563 45.3166 33.6751 45.3982C33.7871 45.7922 33.592 46.3511 32.857 46.9981C31.892 46.8341 31.4331 46.4611 31.3211 46.0671C31.2941 45.9878 31.2833 45.9038 31.2894 45.8203C31.2954 45.7367 31.3182 45.6553 31.3564 45.5807C31.3945 45.506 31.4472 45.4398 31.5114 45.3859C31.5756 45.3321 31.6499 45.2916 31.73 45.2671C31.8432 45.2346 31.9622 45.2283 32.0782 45.2487C32.1941 45.2692 32.3039 45.3158 32.3991 45.3851Z" fill="#F7CC7F"/>
<path id="Path 33655" d="M12.328 19.8993C12.3999 19.8417 12.4842 19.8014 12.5742 19.7816C12.6642 19.7619 12.7575 19.7631 12.847 19.7852C12.9104 19.8017 12.9698 19.8308 13.0217 19.8707C13.0736 19.9106 13.117 19.9606 13.1493 20.0175C13.1816 20.0745 13.2021 20.1374 13.2096 20.2025C13.2171 20.2675 13.2115 20.3334 13.193 20.3963C13.119 20.7073 12.772 21.0143 12.025 21.1743C11.425 20.6943 11.259 20.2643 11.333 19.9533C11.3449 19.8889 11.3696 19.8276 11.4056 19.773C11.4416 19.7184 11.4883 19.6716 11.5427 19.6353C11.5972 19.599 11.6584 19.574 11.7227 19.5618C11.787 19.5496 11.853 19.5504 11.917 19.5642C12.0066 19.5849 12.0902 19.6258 12.1615 19.6839C12.2328 19.7419 12.2897 19.8157 12.328 19.8993Z" fill="#F47458"/>
<path id="Path 33656" d="M39.3849 7.03625L40.224 7.54623L40.75 6.79724L41.599 7.26324L42.19 6.60925L42.882 6.85425L43.006 6.50424L42.08 6.17725L41.5199 6.79724L40.637 6.31226L40.12 7.04926L39.36 6.58725L39.3849 7.03625Z" fill="#A8B5FF"/>
<path id="Path 33657" d="M9.09598 13.5532L8.96698 14.3582L7.64798 14.2932L7.31299 15.4473L6.31299 15.5602L6.37 16.0602L7.70099 15.9092L8.01797 14.8152L9.38998 14.8832L9.58499 13.6713L9.09598 13.5532Z" fill="#F7CC7F"/>
<g id="Group 16517">
<g id="Group 16509">
<path id="Rectangle 3240" d="M34.689 11.5272H21.831C19.6219 11.5272 17.831 13.3181 17.831 15.5272V45.6892C17.831 47.8984 19.6219 49.6892 21.831 49.6892H34.689C36.8981 49.6892 38.689 47.8984 38.689 45.6892V15.5272C38.689 13.3181 36.8981 11.5272 34.689 11.5272Z" fill="#60ACE9"/>
<g id="Group 16508">
<g id="Group 16507">
<path id="Path 33658" d="M20.5419 52.8912L35.434 52.9592C36.4667 52.966 37.4605 52.5658 38.2003 51.8452C38.9402 51.1247 39.3665 50.1417 39.387 49.1092L39.843 14.9992C39.8485 14.4906 39.753 13.9859 39.562 13.5145C39.3709 13.0431 39.0882 12.6144 38.7301 12.2531C38.372 11.8919 37.9458 11.6054 37.4761 11.4102C37.0064 11.215 36.5026 11.1151 35.994 11.1162L21.1019 11.0482C20.069 11.0414 19.0751 11.4418 18.3352 12.1625C17.5954 12.8833 17.1692 13.8665 17.1489 14.8992C17.1299 16.2942 16.7039 48.2252 16.6929 49.0092C16.6875 49.5177 16.7832 50.0222 16.9742 50.4935C17.1653 50.9648 17.4481 51.3934 17.8062 51.7546C18.1642 52.1157 18.5904 52.4021 19.0601 52.5973C19.5297 52.7924 20.0334 52.8923 20.5419 52.8912ZM18.2949 46.3702C18.3039 45.6812 18.6139 22.4822 18.7169 14.8212C18.7285 14.2255 18.9743 13.6584 19.4011 13.2427C19.8278 12.827 20.4012 12.5961 20.997 12.6002L36.056 12.6692C36.3494 12.6686 36.6399 12.7264 36.9108 12.839C37.1817 12.9516 37.4275 13.1169 37.634 13.3253C37.8406 13.5337 38.0036 13.781 38.1138 14.0528C38.224 14.3247 38.2791 14.6158 38.2759 14.9092L37.8539 46.4582C37.8424 47.0538 37.5966 47.621 37.1699 48.0367C36.7431 48.4524 36.1697 48.6833 35.574 48.6792L20.515 48.6102C20.2218 48.6106 19.9315 48.5528 19.6609 48.4403C19.3902 48.3277 19.1446 48.1626 18.9382 47.9544C18.7319 47.7463 18.5688 47.4993 18.4586 47.2277C18.3483 46.9561 18.2931 46.6653 18.296 46.3722L18.2949 46.3702Z" fill="#355389"/>
</g>
</g>
</g>
<g id="Group 16512">
<g id="Group 16510">
<path id="Rectangle 3241" d="M33.125 29.5532H23.409C21.4975 29.5532 19.948 31.1028 19.948 33.0142C19.948 34.9257 21.4975 36.4752 23.409 36.4752H33.125C35.0364 36.4752 36.586 34.9257 36.586 33.0142C36.586 31.1028 35.0364 29.5532 33.125 29.5532Z" fill="white"/>
</g>
<g id="Group 16511">
<path id="Path 33659" d="M23.6339 35.0222V31.0573H25.3789C25.7588 31.0744 26.1174 31.2373 26.3801 31.5121C26.6428 31.7869 26.7894 32.1525 26.7894 32.5327C26.7894 32.9129 26.6428 33.2785 26.3801 33.5533C26.1174 33.8282 25.7588 33.991 25.3789 34.0082H24.648V35.0222H23.6339ZM25.373 31.9633C25.135 31.9583 24.88 31.9633 24.648 31.9633V33.0962H25.373C25.928 33.0962 25.962 31.9693 25.373 31.9633Z" fill="#ED7297"/>
<path id="Path 33660" d="M29.678 34.5243H28.1149L27.8829 35.0243H26.892V34.8773L28.676 31.0083H29.1119L30.902 34.8773V35.0243H29.9109L29.678 34.5243ZM28.8909 32.6093L28.449 33.6512H29.3489L28.8909 32.6093Z" fill="#ED7297"/>
<path id="Path 33661" d="M32.9109 35.0222H31.9109V33.3572L30.58 31.2102V31.0573H31.673L32.392 32.3772H32.4319L33.1509 31.0573H34.251V31.2102L32.9139 33.3572L32.9109 35.0222Z" fill="#ED7297"/>
</g>
</g>
<g id="Group 16516">
<g id="Group 16515">
<g id="Group 16513">
<path id="Rectangle 3242" d="M29.202 15.7662H31.068V17.0402C31.068 17.2877 30.9697 17.525 30.7947 17.7C30.6197 17.8749 30.3824 17.9732 30.135 17.9732C29.8875 17.9732 29.6502 17.8749 29.4752 17.7C29.3003 17.525 29.202 17.2877 29.202 17.0402V15.7662Z" fill="#F08296"/>
<path id="Rectangle 3243" d="M27.337 15.7662H29.203V17.0402C29.203 17.2877 29.1047 17.525 28.9297 17.7C28.7547 17.8749 28.5174 17.9732 28.27 17.9732C28.0225 17.9732 27.7852 17.8749 27.6102 17.7C27.4353 17.525 27.337 17.2877 27.337 17.0402V15.7662Z" fill="#C7C7C7"/>
<path id="Rectangle 3244" d="M25.471 15.7662H27.337V17.0402C27.337 17.2877 27.2387 17.525 27.0637 17.7C26.8887 17.8749 26.6514 17.9732 26.404 17.9732C26.1565 17.9732 25.9192 17.8749 25.7442 17.7C25.5693 17.525 25.471 17.2877 25.471 17.0402V15.7662Z" fill="#F08296"/>
<path id="Rectangle 3245" d="M23.605 15.7662H25.471V17.0402C25.471 17.2877 25.3727 17.525 25.1977 17.7C25.0227 17.8749 24.7854 17.9732 24.538 17.9732C24.2905 17.9732 24.0532 17.8749 23.8782 17.7C23.7033 17.525 23.605 17.2877 23.605 17.0402V15.7662Z" fill="#C7C7C7"/>
<path id="Rectangle 3246" d="M21.74 15.7662H23.606V17.0402C23.606 17.2877 23.5077 17.525 23.3327 17.7C23.1577 17.8749 22.9204 17.9732 22.673 17.9732C22.4255 17.9732 22.1882 17.8749 22.0133 17.7C21.8383 17.525 21.74 17.2877 21.74 17.0402V15.7662Z" fill="#F08296"/>
<path id="Rectangle 3247" d="M38.526 15.7662H40.392V17.0402C40.392 17.2877 40.2937 17.525 40.1187 17.7C39.9437 17.8749 39.7064 17.9732 39.459 17.9732C39.2115 17.9732 38.9742 17.8749 38.7992 17.7C38.6243 17.525 38.526 17.2877 38.526 17.0402V15.7662Z" fill="#C7C7C7"/>
<path id="Rectangle 3248" d="M36.66 15.7662H38.526V17.0402C38.526 17.2877 38.4277 17.525 38.2527 17.7C38.0777 17.8749 37.8404 17.9732 37.593 17.9732C37.3455 17.9732 37.1082 17.8749 36.9332 17.7C36.7583 17.525 36.66 17.2877 36.66 17.0402V15.7662Z" fill="#F08296"/>
<path id="Rectangle 3249" d="M34.795 15.7662H36.661V17.0402C36.661 17.2877 36.5627 17.525 36.3877 17.7C36.2127 17.8749 35.9754 17.9732 35.728 17.9732C35.4805 17.9732 35.2432 17.8749 35.0683 17.7C34.8933 17.525 34.795 17.2877 34.795 17.0402V15.7662Z" fill="#C7C7C7"/>
<path id="Rectangle 3250" d="M32.929 15.7662H34.795V17.0402C34.795 17.2877 34.6967 17.525 34.5217 17.7C34.3467 17.8749 34.1094 17.9732 33.862 17.9732C33.6145 17.9732 33.3772 17.8749 33.2023 17.7C33.0273 17.525 32.929 17.2877 32.929 17.0402V15.7662Z" fill="#F08296"/>
<path id="Rectangle 3251" d="M31.068 15.7662H32.934V17.0402C32.934 17.2877 32.8357 17.525 32.6607 17.7C32.4857 17.8749 32.2484 17.9732 32.001 17.9732C31.7535 17.9732 31.5162 17.8749 31.3412 17.7C31.1663 17.525 31.068 17.2877 31.068 17.0402V15.7662Z" fill="#C7C7C7"/>
<path id="Rectangle 3252" d="M19.874 15.7662H21.74V17.0402C21.74 17.2877 21.6417 17.525 21.4667 17.7C21.2917 17.8749 21.0544 17.9732 20.807 17.9732C20.5595 17.9732 20.3222 17.8749 20.1472 17.7C19.9723 17.525 19.874 17.2877 19.874 17.0402V15.7662Z" fill="#C7C7C7"/>
<path id="Rectangle 3253" d="M18.009 15.7662H19.875V17.0402C19.875 17.2877 19.7767 17.525 19.6017 17.7C19.4267 17.8749 19.1894 17.9732 18.942 17.9732C18.6945 17.9732 18.4572 17.8749 18.2822 17.7C18.1073 17.525 18.009 17.2877 18.009 17.0402V15.7662Z" fill="#F08296"/>
<path id="Rectangle 3254" d="M16.143 15.7662H18.009V17.0402C18.009 17.2877 17.9107 17.525 17.7357 17.7C17.5607 17.8749 17.3234 17.9732 17.076 17.9732C16.8285 17.9732 16.5912 17.8749 16.4162 17.7C16.2413 17.525 16.143 17.2877 16.143 17.0402V15.7662Z" fill="#C7C7C7"/>
</g>
<g id="Group 16514">
<path id="Path 33662" d="M28.933 12.5602H27.606L27.336 15.7662H29.202L28.933 12.5602Z" fill="#F5F5F5"/>
<path id="Path 33663" d="M27.606 12.5602H26.28L25.471 15.7662H27.337L27.606 12.5602Z" fill="#F08296"/>
<path id="Path 33664" d="M26.2789 12.5602H24.9529L23.605 15.7662H25.4709L26.2789 12.5602Z" fill="#F5F5F5"/>
<path id="Path 33665" d="M24.954 12.5602H23.628L21.741 15.7662H23.607L24.954 12.5602Z" fill="#F08296"/>
<path id="Path 33666" d="M23.627 12.5602H22.301L19.875 15.7662H21.741L23.627 12.5602Z" fill="#F5F5F5"/>
<path id="Path 33667" d="M22.3 12.5602H20.974L18.008 15.7662H19.874L22.3 12.5602Z" fill="#F08296"/>
<path id="Path 33668" d="M20.974 12.5602H19.648L16.148 15.7662H18.0139L20.974 12.5602Z" fill="#F5F5F5"/>
<path id="Path 33669" d="M34.2289 12.5602H32.903L34.795 15.7662H36.6609L34.2289 12.5602Z" fill="#F5F5F5"/>
<path id="Path 33670" d="M32.9089 12.5602H31.583L32.929 15.7662H34.7949L32.9089 12.5602Z" fill="#F08296"/>
<path id="Path 33671" d="M36.883 12.5602H35.557L38.527 15.7662H40.392L36.883 12.5602Z" fill="#F5F5F5"/>
<path id="Path 33672" d="M35.5559 12.5602H34.23L36.661 15.7662H38.527L35.5559 12.5602Z" fill="#F08296"/>
<path id="Path 33673" d="M31.583 12.5602H30.257L31.068 15.7662H32.934L31.583 12.5602Z" fill="#F5F5F5"/>
<path id="Path 33674" d="M30.257 12.5602H28.931L29.203 15.7662H31.069L30.257 12.5602Z" fill="#F08296"/>
</g>
</g>
</g>
</g>
<path id="Path 33675" d="M50.036 27.9432L49.708 27.0182L48.827 27.2662L48.464 26.3662L47.593 26.4992L47.211 25.8722L46.894 26.0652L47.404 26.9042L48.229 26.7782L48.607 27.7122L49.473 27.4682L49.7729 28.3072L50.036 27.9432Z" fill="#A8B5FF"/>
</g>
</g>
</svg>
