<svg width="56" height="56" viewBox="0 0 56 56" fill="none" xmlns="http://www.w3.org/2000/svg">
<g id="Group 16818">
<path id="Vector" d="M28.178 54.9451C42.8135 54.9451 54.678 43.0806 54.678 28.4451C54.678 13.8095 42.8135 1.94507 28.178 1.94507C13.5424 1.94507 1.67798 13.8095 1.67798 28.4451C1.67798 43.0806 13.5424 54.9451 28.178 54.9451Z" stroke="#A52DBC" stroke-width="2"/>
<mask id="mask0_255_3225" style="mask-type:alpha" maskUnits="userSpaceOnUse" x="3" y="3" width="50" height="50">
<path id="Vector_2" d="M28.178 52.9451C41.709 52.9451 52.678 41.976 52.678 28.4451C52.678 14.9141 41.709 3.94507 28.178 3.94507C14.647 3.94507 3.67798 14.9141 3.67798 28.4451C3.67798 41.976 14.647 52.9451 28.178 52.9451Z" fill="black"/>
</mask>
<g mask="url(#mask0_255_3225)">
<g id="Mask Group 2">
<g id="giftbox">
<path id="Path 15" d="M49.1629 59.623H6.92587C6.39544 59.623 5.88673 59.4123 5.51166 59.0372C5.13659 58.6621 4.92587 58.1534 4.92587 57.623V25.323H51.1669V57.623C51.1669 57.886 51.115 58.1464 51.0143 58.3893C50.9135 58.6322 50.7658 58.8529 50.5797 59.0386C50.3935 59.2244 50.1726 59.3716 49.9295 59.4719C49.6864 59.5722 49.4259 59.6235 49.1629 59.623Z" fill="#FFC73B"/>
<path id="Path 16" d="M4.91986 25.32H51.1669V32.043H4.91986V25.32Z" fill="#EFB025"/>
<path id="Path 17" d="M55.1019 18.314V26.641C55.1016 27.0681 54.9318 27.4776 54.6297 27.7795C54.3276 28.0814 53.918 28.251 53.4909 28.251H2.59486C2.3834 28.2512 2.17398 28.2096 1.97859 28.1288C1.78319 28.0479 1.60566 27.9293 1.45613 27.7798C1.3066 27.6302 1.18801 27.4527 1.10715 27.2573C1.02629 27.0619 0.984732 26.8525 0.984864 26.641V18.314C0.984732 18.1026 1.02629 17.8932 1.10715 17.6978C1.18801 17.5024 1.3066 17.3248 1.45613 17.1753C1.60566 17.0258 1.78319 16.9072 1.97859 16.8263C2.17398 16.7455 2.3834 16.7039 2.59486 16.704H53.4949C53.9213 16.7051 54.3298 16.8752 54.6311 17.1769C54.9323 17.4787 55.1016 17.8876 55.1019 18.314Z" fill="#FFC73B"/>
<path id="Path 18" d="M26.2029 20.532C25.8515 20.9414 25.5072 21.356 25.1699 21.776C23.9188 23.3311 22.7688 24.9648 21.7269 26.667C21.4075 27.189 21.0989 27.7167 20.8009 28.25H9.82687C10.4682 26.7954 11.1702 25.369 11.9329 23.971C13.3179 21.4317 14.8956 19.0023 16.6519 16.704C17.0725 16.1534 17.5035 15.61 17.9449 15.074C18.2089 14.751 18.4779 14.433 18.7509 14.116L21.7509 16.704L22.2159 17.104C23.3985 18.122 24.5809 19.1404 25.7629 20.159C25.9149 20.283 26.0589 20.408 26.2029 20.532Z" fill="#EFB025"/>
<path id="Path 19" d="M42.5799 28.25H31.6039C31.3059 27.7167 30.9972 27.189 30.6779 26.667C29.6368 24.9648 28.4881 23.3308 27.2389 21.775C26.9009 21.3557 26.5562 20.941 26.2049 20.531L26.6389 20.159C27.8222 19.1397 29.0049 18.1214 30.1869 17.104L30.6529 16.704L33.6529 14.116C33.9255 14.432 34.1942 14.751 34.4589 15.073C34.9009 15.6064 35.3319 16.1497 35.7519 16.703C37.5082 19.0015 39.0862 21.4309 40.4719 23.97C41.2352 25.3667 41.9379 26.7934 42.5799 28.25Z" fill="#EFB025"/>
<g id="Group 61">
<path id="Path 20" d="M28.0419 20.533C27.6899 20.9417 27.3455 21.356 27.0089 21.776C21.7758 28.2948 18.3775 36.0921 17.1649 44.363C15.745 42.4756 14.4688 40.4844 13.3469 38.406C11.2654 39.7667 9.28912 41.282 7.43488 42.939C8.93633 32.6989 13.2071 23.0637 19.7859 15.074C20.0499 14.751 20.3189 14.433 20.5919 14.116L24.0619 17.105L27.6089 20.16C27.7539 20.283 27.8969 20.408 28.0419 20.533Z" fill="#FF4440"/>
<path id="Path 21" d="M48.6499 42.9381C46.7956 41.281 44.8194 39.7657 42.7379 38.4051C41.616 40.4834 40.3397 42.4747 38.9199 44.3621C38.0026 38.0923 35.8255 32.073 32.5199 26.6671C31.4789 24.9645 30.3303 23.3301 29.0809 21.7741C28.7429 21.3547 28.3982 20.9404 28.0469 20.5311L28.4799 20.1591C29.6632 19.1397 30.8459 18.1214 32.0279 17.1041C33.1845 16.1041 34.3412 15.1077 35.4979 14.1151C35.7705 14.4311 36.0392 14.7501 36.3039 15.0721C38.5855 17.8416 40.5989 20.8217 42.3169 23.9721C45.5327 29.8699 47.6769 36.2913 48.6499 42.9381Z" fill="#FF4440"/>
<path id="Path 22" d="M23.7349 20.537H32.3519V28.255H23.7349V20.537Z" fill="#FF4440"/>
</g>
<path id="Path 23" d="M42.3119 23.972L32.5119 26.672C31.4709 24.9694 30.3223 23.3351 29.0729 21.779L28.4749 20.158L28.0419 18.993L32.0229 17.103L36.2979 15.072C38.5798 17.8416 40.5935 20.8216 42.3119 23.972Z" fill="#EA2F2F"/>
<path id="Path 24" d="M28.0429 18.996L27.6089 20.158L27.0089 21.774C25.7584 23.3305 24.6091 24.9655 23.5679 26.669L13.7679 23.969C15.4855 20.8187 17.4986 17.8386 19.7799 15.069L24.0559 17.1L28.0429 18.996Z" fill="#EA2F2F"/>
<path id="Path 25" d="M43.6769 5.91701L28.0429 13.343L31.0429 21.42L47.7309 16.827C48.2467 16.6849 48.7273 16.437 49.1422 16.0992C49.5572 15.7614 49.8973 15.341 50.141 14.8647C50.3848 14.3884 50.5268 13.8666 50.5581 13.3325C50.5894 12.7983 50.5093 12.2635 50.3229 11.762L48.9459 8.06201C48.7598 7.5604 48.4715 7.10297 48.0992 6.71877C47.7269 6.33457 47.2788 6.032 46.7833 5.83028C46.2878 5.62856 45.7557 5.53211 45.221 5.54703C44.6862 5.56196 44.1604 5.68796 43.6769 5.91701Z" fill="#FF4440"/>
<path id="Path 26" d="M12.4089 5.91702L28.0429 13.343L25.0429 21.42L8.35285 16.826C7.83694 16.684 7.35621 16.4362 6.94118 16.0985C6.52616 15.7607 6.18592 15.3403 5.94207 14.864C5.69822 14.3877 5.5561 13.8658 5.52473 13.3317C5.49336 12.7975 5.57343 12.2626 5.75985 11.761L7.13685 8.06102C7.32294 7.55912 7.61143 7.10143 7.98399 6.71706C8.35654 6.3327 8.80501 6.03007 9.30086 5.82841C9.79672 5.62676 10.3291 5.5305 10.8642 5.54576C11.3993 5.56101 11.9253 5.68745 12.4089 5.91702Z" fill="#FF4440"/>
<path id="Path 27" d="M31.7749 16.588C31.5885 16.5881 31.4071 16.5277 31.2579 16.416C31.1087 16.3042 30.9997 16.1472 30.9473 15.9683C30.895 15.7894 30.902 15.5983 30.9673 15.4238C31.0327 15.2492 31.1529 15.1005 31.3099 15C33.2746 13.7749 35.3365 12.7131 37.4749 11.825C42.1359 9.94002 45.2479 10.041 46.7239 12.125C46.7895 12.2173 46.8364 12.3217 46.8617 12.4321C46.887 12.5425 46.8904 12.6569 46.8715 12.7686C46.8527 12.8803 46.812 12.9872 46.7518 13.0832C46.6917 13.1792 46.6132 13.2624 46.5209 13.328C46.4286 13.3937 46.3242 13.4405 46.2138 13.4659C46.1034 13.4912 45.989 13.4945 45.8773 13.4757C45.7656 13.4568 45.6587 13.4162 45.5627 13.356C45.4667 13.2958 45.3835 13.2173 45.3179 13.125C43.3179 10.299 34.9939 14.693 32.2359 16.455C32.098 16.5422 31.9381 16.5884 31.7749 16.588Z" fill="#EA2F2F"/>
<path id="Path 28" d="M24.2239 16.588C24.0598 16.5882 23.8991 16.5413 23.7609 16.453C21.0029 14.691 12.6809 10.297 10.6789 13.123C10.5463 13.3095 10.345 13.4356 10.1194 13.4737C9.89381 13.5117 9.66232 13.4586 9.47587 13.326C9.28942 13.1934 9.16329 12.9922 9.12522 12.7666C9.08715 12.541 9.14026 12.3095 9.27287 12.123C10.7489 10.038 13.8609 9.93702 18.5219 11.823C20.661 12.7108 22.7236 13.7727 24.6889 14.998C24.8459 15.0985 24.966 15.2472 25.0314 15.4218C25.0968 15.5963 25.1038 15.7874 25.0514 15.9663C24.999 16.1452 24.8901 16.3022 24.7409 16.414C24.5917 16.5257 24.4103 16.5861 24.2239 16.586V16.588Z" fill="#EA2F2F"/>
<path id="Path 29" d="M30.4949 10.566H25.5889C24.9444 10.566 24.3263 10.8221 23.8706 11.2778C23.4149 11.7335 23.1589 12.3516 23.1589 12.996V20.12C23.1589 20.7645 23.4149 21.3826 23.8706 21.8383C24.3263 22.294 24.9444 22.55 25.5889 22.55H30.4889C31.1334 22.55 31.7514 22.294 32.2071 21.8383C32.6629 21.3826 32.9189 20.7645 32.9189 20.12V12.996C32.9189 12.3526 32.6637 11.7354 32.2093 11.2799C31.7549 10.8243 31.1383 10.5676 30.4949 10.566Z" fill="#EA2F2F"/>
<path id="Path 30" d="M23.7339 28.25H32.3509V59.625H23.7339V28.25Z" fill="#FF4440"/>
<path id="Path 31" d="M23.7339 28.25H32.3509V32.041H23.7339V28.25Z" fill="#EA2F2F"/>
</g>
</g>
</g>
</g>
</svg>
