<svg width="25" height="25" viewBox="0 0 25 25" fill="none" xmlns="http://www.w3.org/2000/svg">
<g id="whatsapp">
<path id="Path 32461" d="M0.518324 24.163C0.438859 24.1637 0.360321 24.1459 0.288881 24.1111C0.217441 24.0763 0.155044 24.0254 0.106591 23.9624C0.0581391 23.8994 0.0249516 23.8261 0.00963616 23.7481C-0.00567929 23.6701 -0.00270559 23.5897 0.0183237 23.513L1.58932 17.777C0.318317 15.4768 -0.16122 12.8226 0.224571 10.2231C0.610361 7.62353 1.84008 5.22295 3.72433 3.39102C5.60857 1.5591 8.04283 0.397454 10.6522 0.0850039C13.2615 -0.227446 15.9012 0.326629 18.1647 1.66189C20.4282 2.99715 22.19 5.03954 23.1786 7.47448C24.1672 9.90942 24.3279 12.6019 23.6359 15.1371C22.9439 17.6723 21.4376 19.9098 19.349 21.5048C17.2604 23.0998 14.7053 23.9639 12.0773 23.964H12.0723C10.1432 23.961 8.24325 23.4931 6.53332 22.6L0.649324 24.146C0.606564 24.1573 0.562538 24.163 0.518324 24.163Z" fill="#E5E5E5"/>
<path id="Path 32462" d="M0.519318 23.649L2.14632 17.709C0.886267 15.5222 0.382862 12.9808 0.714152 10.4788C1.04544 7.97677 2.19292 5.65395 3.97868 3.87046C5.76443 2.08696 8.08871 0.942426 10.5911 0.614306C13.0935 0.286185 15.6343 0.792809 17.8195 2.05563C20.0047 3.31845 21.7122 5.26691 22.6774 7.59893C23.6425 9.93095 23.8113 12.5162 23.1576 14.954C22.504 17.3917 21.0643 19.5456 19.0619 21.0819C17.0595 22.6182 14.6062 23.4509 12.0823 23.451C10.1677 23.4495 8.28398 22.9681 6.60332 22.051L0.519318 23.649ZM6.87932 19.98L7.22732 20.186C8.696 21.0556 10.3715 21.5143 12.0783 21.514C14.1911 21.5137 16.2439 20.8113 17.914 19.5172C19.5842 18.2231 20.7769 16.4106 21.3047 14.3648C21.8326 12.319 21.6656 10.1558 20.83 8.21522C19.9945 6.27464 18.5378 4.66674 16.6888 3.64427C14.8399 2.62179 12.7036 2.24273 10.6158 2.56665C8.52798 2.89058 6.60698 3.89913 5.15479 5.43377C3.7026 6.96841 2.80157 8.94212 2.59331 11.0446C2.38506 13.1472 2.8814 15.2593 4.00432 17.049L4.23132 17.41L3.26832 20.926L6.87932 19.98Z" fill="white"/>
<path id="Path 32463" d="M0.917328 23.249L2.48733 17.514C1.27085 15.4029 0.784826 12.9495 1.1046 10.5341C1.42437 8.11874 2.53208 5.87631 4.25599 4.15452C5.97989 2.43274 8.22368 1.32779 10.6395 1.01098C13.0552 0.694182 15.5081 1.18323 17.6176 2.40229C19.7272 3.62136 21.3756 5.50235 22.3074 7.75362C23.2392 10.0049 23.4022 12.5007 22.7711 14.854C22.1401 17.2074 20.7503 19.2868 18.8173 20.7699C16.8842 22.253 14.5158 23.0569 12.0793 23.057C10.2312 23.0567 8.41254 22.5936 6.78933 21.71L0.917328 23.249Z" fill="#64B161"/>
<g id="Group 14325">
<path id="Path 32464" d="M0.518311 23.648L2.14531 17.708C0.88526 15.5212 0.381855 12.9798 0.713145 10.4778C1.04444 7.97579 2.19191 5.65297 3.97767 3.86948C5.76343 2.08598 8.0877 0.94145 10.5901 0.613329C13.0925 0.285208 15.6333 0.791833 17.8185 2.05465C20.0037 3.31747 21.7112 5.26594 22.6764 7.59795C23.6415 9.92997 23.8103 12.5153 23.1566 14.953C22.503 17.3907 21.0633 19.5447 19.0609 21.0809C17.0585 22.6172 14.6052 23.4499 12.0813 23.45C10.1667 23.4485 8.28297 22.9672 6.60231 22.05L0.518311 23.648ZM6.87831 19.979L7.22631 20.185C8.69499 21.0546 10.3705 21.5133 12.0773 21.513C14.1901 21.5127 16.2429 20.8103 17.913 19.5162C19.5832 18.2221 20.7759 16.4097 21.3037 14.3639C21.8315 12.318 21.6646 10.1548 20.829 8.21424C19.9935 6.27367 18.5368 4.66576 16.6878 3.64329C14.8389 2.62082 12.7026 2.24175 10.6148 2.56568C8.52697 2.8896 6.60598 3.89816 5.15379 5.4328C3.7016 6.96743 2.80056 8.94114 2.59231 11.0437C2.38405 13.1462 2.88039 15.2583 4.00331 17.048L4.23031 17.409L3.26731 20.925L6.87831 19.979Z" fill="white"/>
<path id="Path 32465" fill-rule="evenodd" clip-rule="evenodd" d="M9.21532 7.18498C9.00032 6.70798 8.77432 6.69797 8.57032 6.68997C8.40332 6.68297 8.21232 6.68298 8.02132 6.68298C7.8761 6.68688 7.73325 6.72078 7.60177 6.78256C7.47028 6.84435 7.35301 6.93267 7.25731 7.04198C6.93382 7.34908 6.67784 7.7202 6.50567 8.13168C6.3335 8.54317 6.24891 8.986 6.25731 9.43198C6.35071 10.5124 6.75732 11.5422 7.42731 12.395C8.61756 14.2698 10.3143 15.7693 12.3213 16.72C14.7413 17.675 15.2343 17.485 15.7593 17.437C16.1595 17.3581 16.5385 17.1956 16.8715 16.96C17.2044 16.7244 17.4838 16.4211 17.6913 16.07C17.8788 15.642 17.9369 15.1685 17.8583 14.708C17.7863 14.589 17.5953 14.517 17.3093 14.374C17.0233 14.231 15.6093 13.537 15.3513 13.442C15.0933 13.347 14.8973 13.299 14.7063 13.586C14.5153 13.873 13.9663 14.518 13.7993 14.709C13.6323 14.9 13.4653 14.924 13.1783 14.781C12.335 14.4439 11.5568 13.9627 10.8783 13.359C10.2519 12.78 9.71472 12.1114 9.28432 11.375C9.11732 11.089 9.28431 10.947 9.41031 10.79C9.67165 10.4805 9.91091 10.153 10.1263 9.80998C10.164 9.73116 10.1815 9.64421 10.1773 9.55695C10.1731 9.46968 10.1474 9.38483 10.1023 9.30998C10.0273 9.16998 9.47032 7.75198 9.21532 7.18498Z" fill="white"/>
</g>
</g>
</svg>
